<?xml version="1.0" encoding="UTF-8"?>
<!DOCTYPE svg PUBLIC "-//W3C//DTD SVG 1.1//EN" "http://www.w3.org/Graphics/SVG/1.1/DTD/svg11.dtd">
<svg xmlns="http://www.w3.org/2000/svg" version="1.1" width="500px" height="500px" style="shape-rendering:geometricPrecision; text-rendering:geometricPrecision; image-rendering:optimizeQuality; fill-rule:evenodd; clip-rule:evenodd" xmlns:xlink="http://www.w3.org/1999/xlink">
<g><path style="opacity:1" fill="#000000" d="M -0.5,-0.5 C 166.167,-0.5 332.833,-0.5 499.5,-0.5C 499.5,166.167 499.5,332.833 499.5,499.5C 332.833,499.5 166.167,499.5 -0.5,499.5C -0.5,332.833 -0.5,166.167 -0.5,-0.5 Z"/></g>
<g><path style="opacity:1" fill="#f7f7f7" d="M 134.5,209.5 C 143.528,209.32 152.528,209.653 161.5,210.5C 161.54,213.881 161.207,217.214 160.5,220.5C 153.159,220.334 145.826,220.5 138.5,221C 137.333,222.167 136.167,223.333 135,224.5C 132.736,234.954 133.07,245.287 136,255.5C 137.255,256.211 138.421,257.044 139.5,258C 147.202,258.731 154.869,258.564 162.5,257.5C 162.5,260.833 162.5,264.167 162.5,267.5C 153.612,269.428 144.612,269.928 135.5,269C 126.371,266.2 121.204,260.034 120,250.5C 119.119,241.438 119.452,232.438 121,223.5C 123.017,216.318 127.517,211.652 134.5,209.5 Z"/></g>
<g><path style="opacity:1" fill="#f8f8f8" d="M 262.5,209.5 C 272.839,209.334 283.172,209.5 293.5,210C 302.363,211.363 306.697,216.53 306.5,225.5C 307.335,234.031 303.668,239.198 295.5,241C 298.667,242.833 301.167,245.333 303,248.5C 305.149,255.098 306.982,261.764 308.5,268.5C 303.833,268.5 299.167,268.5 294.5,268.5C 293.004,261.847 291.504,255.181 290,248.5C 289.097,247.299 287.931,246.465 286.5,246C 282.848,245.501 279.182,245.335 275.5,245.5C 275.5,253.167 275.5,260.833 275.5,268.5C 271.167,268.5 266.833,268.5 262.5,268.5C 262.5,248.833 262.5,229.167 262.5,209.5 Z"/></g>
<g><path style="opacity:1" fill="#6f6f6f" d="M 367.5,210.5 C 372.015,209.188 376.682,209.188 381.5,210.5C 381.376,211.107 381.043,211.44 380.5,211.5C 376.366,210.515 372.032,210.182 367.5,210.5 Z"/></g>
<g><path style="opacity:1" fill="#f8f8f8" d="M 201.5,210.5 C 207.509,210.334 213.509,210.501 219.5,211C 220.701,211.903 221.535,213.069 222,214.5C 227.346,232.219 232.846,249.886 238.5,267.5C 233.88,268.493 229.214,268.827 224.5,268.5C 223.377,263.554 222.377,258.554 221.5,253.5C 214.468,253.17 207.468,253.503 200.5,254.5C 199.457,258.92 198.124,263.254 196.5,267.5C 192.217,268.492 187.884,268.826 183.5,268.5C 188.903,248.959 194.903,229.625 201.5,210.5 Z"/></g>
<g><path style="opacity:1" fill="#f8f8f8" d="M 367.5,210.5 C 372.032,210.182 376.366,210.515 380.5,211.5C 375.905,220.357 371.572,229.357 367.5,238.5C 372.354,248.375 377.354,258.208 382.5,268C 377.798,268.828 373.131,268.662 368.5,267.5C 364.861,258.888 360.694,250.554 356,242.5C 351.849,250.802 347.682,259.136 343.5,267.5C 339.167,268.833 334.833,268.833 330.5,267.5C 335.442,257.95 340.108,248.284 344.5,238.5C 339.877,228.924 335.544,219.258 331.5,209.5C 335.884,209.174 340.217,209.508 344.5,210.5C 347.755,218.634 351.755,226.3 356.5,233.5C 360.435,225.964 364.101,218.297 367.5,210.5 Z"/></g>
<g><path style="opacity:1" fill="#040404" d="M 275.5,219.5 C 280.179,219.334 284.845,219.501 289.5,220C 292.366,221.393 293.699,223.726 293.5,227C 293.668,230.541 292.334,233.208 289.5,235C 284.845,235.499 280.179,235.666 275.5,235.5C 275.5,230.167 275.5,224.833 275.5,219.5 Z"/></g>
<g><path style="opacity:1" fill="#0f0f0f" d="M 217.5,242.5 C 212.706,243.097 208.373,242.43 204.5,240.5C 206.011,233.456 207.678,226.456 209.5,219.5C 210.5,219.5 211.5,219.5 212.5,219.5C 214.01,227.206 215.677,234.873 217.5,242.5 Z"/></g>
<g><path style="opacity:1" fill="#5d5d5d" d="M 204.5,240.5 C 208.373,242.43 212.706,243.097 217.5,242.5C 213.03,243.486 208.363,243.819 203.5,243.5C 203.263,242.209 203.596,241.209 204.5,240.5 Z"/></g>
</svg>
