<svg xmlns="http://www.w3.org/2000/svg" xmlns:xlink="http://www.w3.org/1999/xlink" version="1.1" width="1000" height="1000" viewBox="0 0 1000 1000" xml:space="preserve">
<desc>Created with Fabric.js 3.5.0</desc>
<defs>
</defs>
<rect x="0" y="0" width="100%" height="100%" fill="#ffffff"/>
<g transform="matrix(0.5391 0 0 0.5391 270.4389 270.4389)" id="866986">
<g style="" vector-effect="non-scaling-stroke">
		<g transform="matrix(0.1333 0 0 -0.1333 -0.1043 -0.1043)">
<path style="stroke: none; stroke-width: 1; stroke-dasharray: none; stroke-linecap: butt; stroke-dashoffset: 0; stroke-linejoin: miter; stroke-miterlimit: 4; is-custom-font: none; font-file-url: none; fill: rgb(0,0,0); fill-rule: nonzero; opacity: 1;" transform=" translate(-3130, -3130)" d="M 0 3130 l 0 -3130 l 3130 0 l 3130 0 l 0 3130 l 0 3130 l -3130 0 l -3130 0 l 0 -3130 z m 2372 570 c 208 -20 368 -93 520 -238 l 47 -45 l 85 7 c 84 6 86 6 103 -20 c 13 -20 14 -30 6 -44 c -10 -15 -6 -19 28 -30 c 22 -8 45 -22 50 -32 c 9 -17 -11 -18 -525 -18 c -565 0 -581 -1 -592 -46 c -3 -12 -16 -31 -29 -42 c -56 -49 -94 -169 -104 -326 l -6 -111 l -775 0 l -775 0 l 2 30 c 2 17 5 89 9 160 c 6 139 15 183 46 228 c 28 39 33 27 8 -16 c -23 -39 -20 -43 27 -48 c 38 -4 79 29 88 72 c 4 16 26 50 49 76 c 35 38 53 49 104 63 c 65 18 74 17 45 -7 c -10 -8 3 -2 30 12 c 33 19 86 34 176 49 l 128 23 l 69 55 c 75 60 214 153 280 186 c 45 23 157 48 274 61 c 108 12 507 13 632 1 z m 174 -552 c -3 -13 -6 -30 -6 -38 c 0 -13 -18 -14 -115 -12 c -113 4 -115 3 -124 -20 c -8 -23 -8 -23 84 -28 c 133 -7 143 -21 106 -152 c -35 -129 -52 -138 -269 -138 l -143 0 l 3 41 l 3 41 l 120 1 c 116 2 120 3 123 25 c 3 21 1 22 -77 22 c -86 0 -125 10 -134 33 c -8 20 19 132 44 183 c 10 23 29 46 42 52 c 13 6 91 11 186 11 l 163 1 l -6 -22 z m 217 -49 c -13 -40 -23 -76 -23 -80 c 0 -5 25 -9 55 -9 c 54 0 54 0 65 38 c 6 20 13 56 17 80 l 6 42 l 89 0 c 81 0 88 -1 79 -17 c -10 -20 -85 -297 -96 -355 l -7 -38 l -84 0 c -46 0 -84 2 -84 5 c 0 3 9 34 19 68 c 37 119 40 107 -23 107 l -55 0 l -15 -52 c -8 -29 -18 -70 -22 -90 l -6 -38 l -85 0 c -77 0 -85 2 -80 18 c 27 80 96 343 97 365 l 0 27 l 88 0 l 88 0 l -23 -71 z m 742 57 c 28 -20 24 -70 -15 -209 c -36 -130 -62 -169 -121 -181 c -50 -10 -275 -7 -304 4 c -46 18 -49 49 -14 184 c 36 138 48 166 85 195 c 25 19 40 21 188 21 c 123 0 167 -3 181 -14 z m 490 -6 c 17 -19 18 -26 6 -82 c -16 -80 -43 -131 -76 -146 c -14 -7 -70 -12 -126 -12 c -99 0 -100 0 -110 -27 c -6 -16 -13 -49 -16 -75 l -6 -48 l -88 0 c -49 0 -89 2 -89 4 c 0 2 6 19 14 38 c 24 56 98 347 91 358 c -4 7 62 10 188 10 c 182 0 195 -1 212 -20 z" stroke-linecap="round"/>
</g>
		<g transform="matrix(0.1333 0 0 -0.1333 -182.963 -50.5477)">
<path style="stroke: none; stroke-width: 1; stroke-dasharray: none; stroke-linecap: butt; stroke-dashoffset: 0; stroke-linejoin: miter; stroke-miterlimit: 4; is-custom-font: none; font-file-url: none; fill: rgb(0,0,0); fill-rule: nonzero; opacity: 1;" transform=" translate(-1757.929, -3509.0667)" d="M 1785 3670 c -267 -15 -307 -30 -548 -208 c -48 -35 -86 -66 -85 -67 c 2 -2 66 3 143 10 c 216 20 464 28 572 20 l 98 -8 l -100 -23 c -55 -12 -118 -30 -140 -38 c -44 -18 -42 -18 105 14 c 98 22 262 40 359 40 c 36 0 71 4 78 8 c 7 4 26 48 44 97 c 17 50 37 102 45 116 c 13 26 12 27 -19 33 c -60 10 -411 14 -552 6 z" stroke-linecap="round"/>
</g>
		<g transform="matrix(0.1333 0 0 -0.1333 -66.7477 -50.1766)">
<path style="stroke: none; stroke-width: 1; stroke-dasharray: none; stroke-linecap: butt; stroke-dashoffset: 0; stroke-linejoin: miter; stroke-miterlimit: 4; is-custom-font: none; font-file-url: none; fill: rgb(0,0,0); fill-rule: nonzero; opacity: 1;" transform=" translate(-2629.4575, -3506.2936)" d="M 2441 3613 c -11 -22 -71 -201 -71 -214 c 0 -5 11 -9 24 -9 c 19 0 27 8 36 35 c 6 19 21 40 32 46 c 30 16 92 13 133 -7 c 27 -13 35 -22 35 -44 l 0 -27 l 127 -6 c 70 -4 129 -5 131 -2 c 8 8 -38 73 -78 109 c -50 45 -113 77 -218 110 c -98 31 -138 33 -151 9 z" stroke-linecap="round"/>
</g>
		<g transform="matrix(0.1333 0 0 -0.1333 -15.2487 -33.2912)">
<path style="stroke: none; stroke-width: 1; stroke-dasharray: none; stroke-linecap: butt; stroke-dashoffset: 0; stroke-linejoin: miter; stroke-miterlimit: 4; is-custom-font: none; font-file-url: none; fill: rgb(0,0,0); fill-rule: nonzero; opacity: 1;" transform=" translate(-3015.6475, -3379.6796)" d="M 2975 3388 c 11 -6 23 -15 26 -20 c 10 -15 64 -5 64 12 c 0 11 -14 16 -55 18 c -46 2 -52 0 -35 -10 z" stroke-linecap="round"/>
</g>
		<g transform="matrix(0.1333 0 0 -0.1333 -188.9985 -4.5394)">
<path style="stroke: none; stroke-width: 1; stroke-dasharray: none; stroke-linecap: butt; stroke-dashoffset: 0; stroke-linejoin: miter; stroke-miterlimit: 4; is-custom-font: none; font-file-url: none; fill: rgb(0,0,0); fill-rule: nonzero; opacity: 1;" transform=" translate(-1712.6307, -3164)" d="M 2012 3325 c -150 -27 -172 -33 -292 -82 l -85 -35 l -70 16 c -52 13 -103 16 -200 14 l -130 -4 l 141 -2 c 163 -2 241 -20 222 -51 c -6 -10 -8 -30 -4 -46 c 6 -24 10 -26 39 -22 c 18 3 67 9 111 13 l 79 7 l -8 -77 c -3 -42 -4 -76 -2 -76 c 3 0 11 33 17 73 c 15 89 44 135 125 195 c 83 61 108 73 189 87 c 44 8 58 13 36 13 c -19 0 -95 -10 -168 -23 z" stroke-linecap="round"/>
</g>
		<g transform="matrix(0.1333 0 0 -0.1333 -275.8229 19.3265)">
<path style="stroke: none; stroke-width: 1; stroke-dasharray: none; stroke-linecap: butt; stroke-dashoffset: 0; stroke-linejoin: miter; stroke-miterlimit: 4; is-custom-font: none; font-file-url: none; fill: rgb(0,0,0); fill-rule: nonzero; opacity: 1;" transform=" translate(-1061.4449, -2985)" d="M 844 3183 l -121 -4 l -64 -67 l -64 -67 l 6 -55 c 4 -30 7 -90 8 -132 l 1 -78 l 435 0 l 435 0 l 0 139 l 0 140 l 28 4 c 27 4 27 4 -3 6 c -26 1 -35 9 -63 61 l -33 60 l -222 -2 c -122 -1 -276 -4 -343 -5 z" stroke-linecap="round"/>
</g>
		<g transform="matrix(0.1333 0 0 -0.1333 19.1177 21.2472)">
<path style="stroke: none; stroke-width: 1; stroke-dasharray: none; stroke-linecap: butt; stroke-dashoffset: 0; stroke-linejoin: miter; stroke-miterlimit: 4; is-custom-font: none; font-file-url: none; fill: rgb(0,0,0); fill-rule: nonzero; opacity: 1;" transform=" translate(-3273.4059, -2970.614)" d="M 3245 3088 c -2 -7 -16 -58 -30 -113 c -14 -55 -28 -108 -31 -118 c -5 -16 1 -18 57 -15 l 62 3 l 33 120 c 18 66 30 123 28 127 c -9 14 -114 9 -119 -4 z" stroke-linecap="round"/>
</g>
		<g transform="matrix(0.1333 0 0 -0.1333 87.2148 11.9979)">
<path style="stroke: none; stroke-width: 1; stroke-dasharray: none; stroke-linecap: butt; stroke-dashoffset: 0; stroke-linejoin: miter; stroke-miterlimit: 4; is-custom-font: none; font-file-url: none; fill: rgb(0,0,0); fill-rule: nonzero; opacity: 1;" transform=" translate(-3784.1267, -3040)" d="M 3746 3088 c -3 -7 -9 -28 -15 -47 c -18 -57 -16 -61 39 -61 l 49 0 l 11 43 c 6 23 13 50 16 60 c 5 15 -2 17 -46 17 c -32 0 -52 -5 -54 -12 z" stroke-linecap="round"/>
</g>
</g>
</g>
</svg>