<?xml version="1.0" encoding="UTF-8"?>
<svg xmlns="http://www.w3.org/2000/svg" xmlns:xlink="http://www.w3.org/1999/xlink" width="500px" height="500px" viewBox="0 0 500 500" version="1.1">
<g id="surface1">
<rect x="0" y="0" width="500" height="500" style="fill:rgb(100%,100%,100%);fill-opacity:1;stroke:none;"/>
<path style=" stroke:none;fill-rule:nonzero;fill:rgb(0%,0%,0%);fill-opacity:1;" d="M 22.726562 135.191406 L 22.726562 247.65625 L 247.65625 247.65625 L 247.65625 22.726562 L 22.726562 22.726562 Z M 107.957031 114.710938 C 115.429688 115.429688 121.179688 118.050781 126.640625 123.261719 L 128.328125 124.878906 L 131.382812 124.628906 C 134.402344 124.410156 134.472656 124.410156 135.082031 125.347656 C 135.550781 126.066406 135.585938 126.425781 135.300781 126.925781 C 134.941406 127.464844 135.082031 127.609375 136.304688 128.003906 C 137.09375 128.292969 137.921875 128.796875 138.101562 129.15625 C 138.425781 129.765625 137.707031 129.800781 119.238281 129.800781 C 98.9375 129.800781 98.363281 129.835938 97.96875 131.453125 C 97.859375 131.886719 97.390625 132.570312 96.925781 132.964844 C 94.914062 134.722656 93.546875 139.035156 93.1875 144.675781 L 92.972656 148.664062 L 37.28125 148.664062 L 37.351562 147.585938 C 37.421875 146.976562 37.53125 144.390625 37.675781 141.839844 C 37.890625 136.84375 38.214844 135.261719 39.328125 133.644531 C 40.332031 132.246094 40.511719 132.675781 39.613281 134.222656 C 38.789062 135.621094 38.894531 135.765625 40.585938 135.945312 C 41.949219 136.089844 43.421875 134.902344 43.746094 133.359375 C 43.890625 132.785156 44.679688 131.5625 45.507812 130.628906 C 46.765625 129.261719 47.410156 128.867188 49.246094 128.363281 C 51.578125 127.71875 51.902344 127.753906 50.859375 128.617188 C 50.5 128.902344 50.96875 128.6875 51.9375 128.183594 C 53.125 127.503906 55.027344 126.964844 58.261719 126.425781 L 62.863281 125.597656 L 65.339844 123.621094 C 68.035156 121.464844 73.03125 118.125 75.402344 116.9375 C 77.019531 116.113281 81.042969 115.214844 85.246094 114.746094 C 89.128906 114.316406 103.464844 114.28125 107.957031 114.710938 Z M 114.207031 134.542969 C 114.101562 135.011719 113.992188 135.621094 113.992188 135.910156 C 113.992188 136.378906 113.34375 136.414062 109.859375 136.339844 C 105.800781 136.199219 105.726562 136.234375 105.40625 137.058594 C 105.117188 137.886719 105.117188 137.886719 108.421875 138.066406 C 113.203125 138.316406 113.5625 138.820312 112.230469 143.527344 C 110.972656 148.164062 110.363281 148.484375 102.566406 148.484375 L 97.429688 148.484375 L 97.535156 147.011719 L 97.644531 145.539062 L 101.957031 145.503906 C 106.125 145.433594 106.265625 145.394531 106.375 144.605469 C 106.484375 143.851562 106.410156 143.816406 103.609375 143.816406 C 100.519531 143.816406 99.117188 143.457031 98.792969 142.628906 C 98.503906 141.910156 99.476562 137.886719 100.375 136.054688 C 100.734375 135.226562 101.417969 134.402344 101.882812 134.183594 C 102.351562 133.96875 105.152344 133.789062 108.566406 133.789062 L 114.421875 133.753906 Z M 122.003906 136.304688 C 121.539062 137.742188 121.179688 139.035156 121.179688 139.179688 C 121.179688 139.359375 122.078125 139.503906 123.15625 139.503906 C 125.09375 139.503906 125.09375 139.503906 125.488281 138.136719 C 125.707031 137.417969 125.957031 136.125 126.101562 135.261719 L 126.316406 133.753906 L 129.515625 133.753906 C 132.425781 133.753906 132.675781 133.789062 132.351562 134.363281 C 131.992188 135.082031 129.296875 145.035156 128.902344 147.121094 L 128.652344 148.484375 L 125.632812 148.484375 C 123.980469 148.484375 122.617188 148.414062 122.617188 148.304688 C 122.617188 148.199219 122.9375 147.085938 123.296875 145.863281 C 124.628906 141.585938 124.734375 142.019531 122.472656 142.019531 L 120.496094 142.019531 L 119.957031 143.886719 C 119.667969 144.929688 119.308594 146.402344 119.167969 147.121094 L 118.949219 148.484375 L 115.894531 148.484375 C 113.128906 148.484375 112.84375 148.414062 113.023438 147.839844 C 113.992188 144.964844 116.472656 135.515625 116.507812 134.722656 L 116.507812 133.753906 L 122.832031 133.753906 Z M 148.664062 134.257812 C 149.671875 134.976562 149.527344 136.773438 148.125 141.765625 C 146.832031 146.4375 145.898438 147.839844 143.777344 148.269531 C 141.980469 148.628906 133.898438 148.523438 132.855469 148.125 C 131.203125 147.480469 131.09375 146.367188 132.351562 141.515625 C 133.644531 136.558594 134.078125 135.550781 135.40625 134.507812 C 136.304688 133.824219 136.84375 133.753906 142.160156 133.753906 C 146.582031 133.753906 148.164062 133.863281 148.664062 134.257812 Z M 166.273438 134.472656 C 166.882812 135.15625 166.917969 135.40625 166.488281 137.417969 C 165.914062 140.292969 164.941406 142.125 163.757812 142.664062 C 163.253906 142.917969 161.242188 143.097656 159.230469 143.097656 C 155.671875 143.097656 155.636719 143.097656 155.277344 144.066406 C 155.0625 144.640625 154.808594 145.828125 154.703125 146.761719 L 154.484375 148.484375 L 151.324219 148.484375 C 149.5625 148.484375 148.125 148.414062 148.125 148.34375 C 148.125 148.269531 148.34375 147.660156 148.628906 146.976562 C 149.492188 144.964844 152.152344 134.507812 151.898438 134.113281 C 151.753906 133.863281 154.128906 133.753906 158.652344 133.753906 C 165.195312 133.753906 165.660156 133.789062 166.273438 134.472656 Z M 166.273438 134.472656 "/>
<path style=" stroke:none;fill-rule:nonzero;fill:rgb(0%,0%,0%);fill-opacity:1;" d="M 86.875 115.8125 C 77.28125 116.351562 75.84375 116.890625 67.183594 123.285156 C 65.460938 124.542969 64.09375 125.65625 64.128906 125.691406 C 64.203125 125.765625 66.5 125.585938 69.269531 125.332031 C 77.03125 124.613281 85.941406 124.328125 89.820312 124.613281 L 93.34375 124.902344 L 89.75 125.730469 C 87.773438 126.160156 85.507812 126.808594 84.71875 127.09375 C 83.136719 127.742188 83.210938 127.742188 88.492188 126.589844 C 92.011719 125.800781 97.90625 125.152344 101.390625 125.152344 C 102.683594 125.152344 103.941406 125.011719 104.191406 124.867188 C 104.445312 124.722656 105.128906 123.140625 105.773438 121.382812 C 106.386719 119.585938 107.105469 117.714844 107.390625 117.214844 C 107.859375 116.277344 107.820312 116.242188 106.707031 116.027344 C 104.550781 115.667969 91.941406 115.523438 86.875 115.8125 Z M 86.875 115.8125 "/>
<path style=" stroke:none;fill-rule:nonzero;fill:rgb(0%,0%,0%);fill-opacity:1;" d="M 110.457031 117.859375 C 110.0625 118.652344 107.90625 125.082031 107.90625 125.550781 C 107.90625 125.730469 108.300781 125.871094 108.765625 125.871094 C 109.449219 125.871094 109.738281 125.585938 110.0625 124.617188 C 110.277344 123.933594 110.816406 123.179688 111.210938 122.960938 C 112.289062 122.386719 114.515625 122.496094 115.988281 123.214844 C 116.960938 123.679688 117.246094 124.003906 117.246094 124.796875 L 117.246094 125.765625 L 121.808594 125.980469 C 124.324219 126.125 126.445312 126.160156 126.515625 126.050781 C 126.804688 125.765625 125.152344 123.429688 123.714844 122.136719 C 121.917969 120.519531 119.65625 119.371094 115.882812 118.183594 C 112.359375 117.070312 110.921875 116.996094 110.457031 117.859375 Z M 110.457031 117.859375 "/>
<path style=" stroke:none;fill-rule:nonzero;fill:rgb(0%,0%,0%);fill-opacity:1;" d="M 129.648438 125.945312 C 130.042969 126.164062 130.476562 126.484375 130.582031 126.664062 C 130.941406 127.203125 132.882812 126.84375 132.882812 126.234375 C 132.882812 125.839844 132.378906 125.660156 130.90625 125.585938 C 129.253906 125.515625 129.039062 125.585938 129.648438 125.945312 Z M 129.648438 125.945312 "/>
<path style=" stroke:none;fill-rule:nonzero;fill:rgb(0%,0%,0%);fill-opacity:1;" d="M 95.03125 128.210938 C 89.640625 129.179688 88.851562 129.398438 84.539062 131.15625 L 81.484375 132.414062 L 78.96875 131.839844 C 77.101562 131.371094 75.269531 131.265625 71.785156 131.335938 L 67.113281 131.480469 L 72.179688 131.550781 C 78.035156 131.625 80.839844 132.269531 80.15625 133.386719 C 79.941406 133.746094 79.867188 134.464844 80.011719 135.039062 C 80.226562 135.898438 80.371094 135.972656 81.414062 135.828125 C 82.058594 135.71875 83.820312 135.503906 85.402344 135.359375 L 88.242188 135.109375 L 87.953125 137.875 C 87.84375 139.386719 87.808594 140.605469 87.882812 140.605469 C 87.988281 140.605469 88.277344 139.421875 88.492188 137.984375 C 89.03125 134.785156 90.074219 133.132812 92.984375 130.976562 C 95.964844 128.785156 96.863281 128.355469 99.773438 127.851562 C 101.355469 127.5625 101.859375 127.382812 101.066406 127.382812 C 100.386719 127.382812 97.65625 127.742188 95.03125 128.210938 Z M 95.03125 128.210938 "/>
<path style=" stroke:none;fill-rule:nonzero;fill:rgb(0%,0%,0%);fill-opacity:1;" d="M 53.058594 133.316406 L 48.710938 133.457031 L 46.410156 135.867188 L 44.113281 138.273438 L 44.328125 140.25 C 44.472656 141.328125 44.578125 143.484375 44.613281 144.992188 L 44.652344 147.792969 L 75.910156 147.792969 L 75.910156 137.769531 L 76.917969 137.625 C 77.886719 137.484375 77.886719 137.484375 76.808594 137.410156 C 75.875 137.375 75.550781 137.085938 74.546875 135.21875 L 73.359375 133.0625 L 65.382812 133.136719 C 61 133.171875 55.464844 133.277344 53.058594 133.316406 Z M 53.058594 133.316406 "/>
<path style=" stroke:none;fill-rule:nonzero;fill:rgb(0%,0%,0%);fill-opacity:1;" d="M 139.351562 136.730469 C 139.28125 136.980469 138.777344 138.8125 138.273438 140.789062 C 137.769531 142.765625 137.269531 144.667969 137.160156 145.027344 C 136.980469 145.605469 137.195312 145.675781 139.207031 145.566406 L 141.4375 145.460938 L 142.621094 141.148438 C 143.269531 138.777344 143.699219 136.730469 143.628906 136.585938 C 143.304688 136.082031 139.53125 136.261719 139.351562 136.730469 Z M 139.351562 136.730469 "/>
<path style=" stroke:none;fill-rule:nonzero;fill:rgb(0%,0%,0%);fill-opacity:1;" d="M 157.359375 136.730469 C 157.25 136.980469 157.035156 137.734375 156.820312 138.417969 C 156.171875 140.464844 156.246094 140.609375 158.21875 140.609375 L 159.980469 140.609375 L 160.375 139.0625 C 160.59375 138.238281 160.84375 137.269531 160.953125 136.910156 C 161.132812 136.371094 160.878906 136.296875 159.296875 136.296875 C 158.148438 136.296875 157.429688 136.476562 157.359375 136.730469 Z M 157.359375 136.730469 "/>
</g>
</svg>
