<?xml version="1.0" encoding="UTF-8"?>
<!DOCTYPE svg PUBLIC "-//W3C//DTD SVG 1.1//EN" "http://www.w3.org/Graphics/SVG/1.1/DTD/svg11.dtd">
<svg xmlns="http://www.w3.org/2000/svg" version="1.1" width="500px" height="500px" style="shape-rendering:geometricPrecision; text-rendering:geometricPrecision; image-rendering:optimizeQuality; fill-rule:evenodd; clip-rule:evenodd" xmlns:xlink="http://www.w3.org/1999/xlink">
<g><path style="opacity:1" fill="#000000" d="M -0.5,-0.5 C 166.167,-0.5 332.833,-0.5 499.5,-0.5C 499.5,166.167 499.5,332.833 499.5,499.5C 332.833,499.5 166.167,499.5 -0.5,499.5C -0.5,332.833 -0.5,166.167 -0.5,-0.5 Z"/></g>
<g><path style="opacity:1" fill="#b70100" d="M 320.5,169.5 C 350.835,169.333 381.168,169.5 411.5,170C 419.573,172.406 425.073,177.572 428,185.5C 428.667,216.833 428.667,248.167 428,279.5C 425.073,287.428 419.573,292.594 411.5,295C 381.167,295.667 350.833,295.667 320.5,295C 312.333,292.167 306.833,286.667 304,278.5C 303.333,247.5 303.333,216.5 304,185.5C 307.438,177.893 312.938,172.56 320.5,169.5 Z"/></g>
<g><path style="opacity:1" fill="#b20000" d="M 101.5,201.5 C 110.54,201.252 119.54,201.585 128.5,202.5C 128.5,205.833 128.5,209.167 128.5,212.5C 120.389,212.065 112.389,212.565 104.5,214C 101.13,218.926 99.7963,224.426 100.5,230.5C 99.9306,236.994 101.264,242.994 104.5,248.5C 108.14,250.042 111.973,250.709 116,250.5C 120.519,250.303 125.019,249.97 129.5,249.5C 129.82,252.898 129.487,256.232 128.5,259.5C 119.945,261.461 111.279,261.961 102.5,261C 92.5872,257.368 87.4205,250.201 87,239.5C 84.9249,227.673 86.9249,216.673 93,206.5C 95.6822,204.415 98.5155,202.748 101.5,201.5 Z"/></g>
<g><path style="opacity:1" fill="#fafafa" d="M 233.5,201.5 C 242.506,201.334 251.506,201.5 260.5,202C 266.678,202.51 270.845,205.677 273,211.5C 273.667,215.833 273.667,220.167 273,224.5C 271.283,229.551 267.783,232.385 262.5,233C 265.913,234.077 268.413,236.244 270,239.5C 272.307,246.396 274.14,253.396 275.5,260.5C 270.833,260.5 266.167,260.5 261.5,260.5C 260.32,253.778 258.82,247.111 257,240.5C 256.097,239.299 254.931,238.465 253.5,238C 249.848,237.501 246.182,237.335 242.5,237.5C 242.5,245.167 242.5,252.833 242.5,260.5C 238.5,260.5 234.5,260.5 230.5,260.5C 230.5,241.167 230.5,221.833 230.5,202.5C 231.791,202.737 232.791,202.404 233.5,201.5 Z"/></g>
<g><path style="opacity:1" fill="#d7706f" d="M 352.5,202.5 C 347.968,202.182 343.634,202.515 339.5,203.5C 338.957,203.44 338.624,203.107 338.5,202.5C 343.318,201.188 347.985,201.188 352.5,202.5 Z"/></g>
<g><path style="opacity:1" fill="#f8f8f8" d="M 168.5,202.5 C 175.09,202.189 181.59,202.522 188,203.5C 194.134,222.07 199.968,240.736 205.5,259.5C 201.167,260.833 196.833,260.833 192.5,259.5C 191.167,255.167 189.833,250.833 188.5,246.5C 181.532,245.503 174.532,245.17 167.5,245.5C 166.025,250.4 165.025,255.4 164.5,260.5C 159.786,260.827 155.12,260.493 150.5,259.5C 156.508,240.477 162.508,221.477 168.5,202.5 Z"/></g>
<g><path style="opacity:1" fill="#d1d1d1" d="M 233.5,201.5 C 232.791,202.404 231.791,202.737 230.5,202.5C 230.5,221.833 230.5,241.167 230.5,260.5C 229.503,241.007 229.17,221.34 229.5,201.5C 230.833,201.5 232.167,201.5 233.5,201.5 Z"/></g>
<g><path style="opacity:1" fill="#fefafa" d="M 352.5,202.5 C 356.065,210.631 359.899,218.631 364,226.5C 367.961,218.744 371.795,210.91 375.5,203C 379.871,202.172 384.205,202.339 388.5,203.5C 383.891,212.383 379.558,221.383 375.5,230.5C 379.843,240.687 384.843,250.52 390.5,260C 385.798,260.828 381.131,260.662 376.5,259.5C 372.318,251.136 368.151,242.802 364,234.5C 359.306,242.554 355.139,250.888 351.5,259.5C 346.869,260.662 342.202,260.828 337.5,260C 342.646,250.208 347.646,240.375 352.5,230.5C 348.428,221.357 344.095,212.357 339.5,203.5C 343.634,202.515 347.968,202.182 352.5,202.5 Z"/></g>
<g><path style="opacity:1" fill="#020202" d="M 242.5,211.5 C 247.511,211.334 252.511,211.501 257.5,212C 261.146,216.313 261.479,220.98 258.5,226C 253.292,227.397 247.959,227.897 242.5,227.5C 242.5,222.167 242.5,216.833 242.5,211.5 Z"/></g>
<g><path style="opacity:1" fill="#101010" d="M 184.5,233.5 C 180.167,234.833 175.833,234.833 171.5,233.5C 173.17,226.158 174.837,218.825 176.5,211.5C 177.5,211.5 178.5,211.5 179.5,211.5C 181.169,218.839 182.836,226.173 184.5,233.5 Z"/></g>
<g><path style="opacity:1" fill="#646464" d="M 171.5,233.5 C 175.833,234.833 180.167,234.833 184.5,233.5C 185.043,233.56 185.376,233.893 185.5,234.5C 180.5,235.833 175.5,235.833 170.5,234.5C 170.624,233.893 170.957,233.56 171.5,233.5 Z"/></g>
</svg>
