


<?xml version="1.0" standalone="no"?>
<!DOCTYPE svg PUBLIC "-//W3C//DTD SVG 20010904//EN"
 "http://www.w3.org/TR/2001/REC-SVG-20010904/DTD/svg10.dtd">
<svg version="1.0" xmlns="http://www.w3.org/2000/svg"
 width="300.000000pt" height="215.000000pt" viewBox="0 0 300.000000 215.000000"
 preserveAspectRatio="xMidYMid meet">


<g> <path style="opacity:1" fill="#000000"d="M0 1075 l0 -1075 1500 0 1500 0 0 1075 0 1075 -1500 0 -1500 0 0
-1075z m1264 -48 c33 -15 80 -44 105 -65 35 -29 55 -37 85 -37 28 0 42 -5 50
-20 6 -11 18 -25 26 -31 11 -9 -45 -13 -247 -15 l-261 -4 -21 -25 c-29 -35
-50 -95 -59 -165 l-7 -60 -370 0 -370 0 3 75 c4 94 9 115 27 100 19 -16 43 -2
62 37 9 21 29 40 47 48 30 13 162 45 185 45 6 0 39 21 73 46 132 97 158 103
418 101 190 -2 196 -3 254 -30z m-44 -242 c0 -11 -13 -15 -54 -15 -71 0 -81
-16 -15 -25 28 -4 52 -12 55 -19 6 -16 -23 -98 -39 -108 -7 -4 -47 -8 -89 -8
-71 0 -78 2 -78 20 0 18 7 20 60 20 71 0 81 18 13 22 l-48 3 1 37 c1 21 9 49
18 63 15 23 22 25 96 25 64 0 80 -3 80 -15z m110 -11 c-15 -38 -13 -44 15 -44
19 0 26 7 33 33 7 29 12 32 49 35 l40 3 -26 -95 -26 -96 -39 0 c-35 0 -38 2
-32 24 3 13 9 31 12 40 5 12 -1 16 -24 16 -27 0 -30 -4 -36 -40 -6 -39 -7 -40
-47 -40 -38 0 -41 2 -35 23 3 12 14 55 23 94 l18 73 42 0 c41 0 42 -1 33 -26z
m360 -9 c0 -40 -34 -135 -52 -147 -22 -13 -164 -10 -176 5 -13 15 10 117 34
155 13 20 22 22 104 22 l90 0 0 -35z m233 3 c-1 -15 -8 -40 -15 -55 -12 -25
-20 -29 -72 -33 -58 -5 -60 -6 -68 -37 -8 -30 -12 -33 -49 -33 -29 0 -40 4
-36 13 6 16 33 115 41 150 l7 28 97 -3 97 -3 -2 -27z" /></g>

<g><path style="opacity:1" fill="#b70100" d="M820 1040 c-41 -4 -88 -13 -104 -19 -31 -12 -160 -101 -154 -106 2
-2 53 1 113 5 148 12 235 12 235 1 0 -5 -8 -12 -17 -14 -10 -2 0 -2 21 1 22 2
71 7 109 11 l70 6 20 53 c11 29 18 55 15 57 -9 9 -235 13 -308 5z"/></g>

<g><path style="opacity:1" fill="#b20000" d="M1155 968 c-17 -57 -11 -75 12 -40 21 30 82 32 90 2 5 -17 14 -20 71
-20 l66 0 -30 31 c-36 39 -118 79 -161 79 -30 0 -33 -3 -48 -52z"/></g>

<g><path style="opacity:1" fill="#fafafa" d="M1438 903 c6 -2 18 -2 25 0 6 3 1 5 -13 5 -14 0 -19 -2 -12 -5z"/>
<path d="M919 869 c-20 -4 -59 -17 -88 -29 -29 -11 -56 -18 -60 -15 -5 2 -6
-7 -3 -21 4 -24 8 -26 53 -22 46 3 49 2 50 -22 1 -24 1 -24 11 5 13 38 51 79
92 99 29 15 30 16 6 15 -14 -1 -41 -5 -61 -10z"/></g>

<g><path style="opacity:1" fill="#d7706f" d="M318 775 c-24 -28 -28 -42 -28 -94 l0 -61 209 0 209 0 4 70 c2 39 0
70 -3 70 -3 0 -11 11 -17 25 l-12 25 -167 -1 -168 0 -27 -34z"/></g>

<g><path style="opacity:1" fill="#f8f8f8" d="M1550 728 c-6 -24 -13 -51 -16 -60 -4 -14 1 -18 24 -18 27 0 31 4 42
48 6 26 14 53 16 60 2 7 -7 12 -26 12 -26 0 -30 -5 -40 -42z"/></g>
<g><path style="opacity:1" fill="#d1d1d1" d="M1796 754 c-12 -31 -6 -44 19 -44 15 0 25 6 25 14 0 8 3 21 6 30 5
12 0 16 -19 16 -14 0 -28 -7 -31 -16z"/>
</g>\
<g transform="translate(0.000000,215.000000) scale(0.100000,-0.100000)"
fill="#000000" stroke="none">
</svg>
